<svg xmlns="http://www.w3.org/2000/svg" viewBox="0 0 666.66669 666.66669" height="666.667" width="666.667"><path d="M0 666.667h666.667V0H0z" fill="#d94e3a"/><path d="M119.81 461.09c-10.318 0-17.777-9.126-17.777-27.777 0-31.574 25.81-58.434 53.239-73.858-1.805 19.529-4.521 40.542-6.441 53.452-3.552 23.872-11.958 48.184-29.022 48.184zm485.863-53.511c-6.041 3.424-12.466 5.533-19.193 5.533-15.288 0-24.104-7.696-27.763-20.145-7.421-25.25-.5-71.011 2.052-100.948 3.451-40.494 5.096-56.39 5.756-64.86 1.544-19.767-6.18-41.766-28.664-41.611-20.898.145-48.154 25.203-60.196 50.423 2.935-32.3-6.38-59.683-30.981-59.512-24.601.169-49.8 36.724-57.49 52.452 1.557-14.695 2.406-20.858 3.078-28.799.67-7.941.401-13.685-7.901-14.499-5.034-.493-14.856 1.244-20.531 2.208-7.268 1.236-9.625 6.423-10.967 17.67-.965 8.12-3.505 40.301-6.014 71.308-5.702.456-15.036 2.262-20.623 3.041-10.495 1.463-17.2 2.621-27.459 4.445 3.464-36.248 8.54-74.934 10.292-89.121 1.06-8.581.24-13.968-8.65-15.024-5.052-.6-20.355 1.595-25.115 2.376-7.832 1.285-10.813 7.959-11.805 13.16-4.011 21.03-7.83 59.057-10.395 97.6a660.258 660.258 0 0 0-49.97 14.31c1.647-29.945 2.73-63.349 1.7-79.827-1.485-23.763-15.08-39.363-35.978-39.363-22.265 0-47.963 11.968-64.087 25.593-10.544 8.907-16.475 19.222-16.475 27.382 0 8.333 4.174 15.878 15.194 15.878 8.528-11.66 30.845-32.113 43.308-32.113 11.213 0 14.075 9.733 14.075 19.653 0 8.16-1.647 45.847-3.243 77.696-42.768 19.111-91.036 55.552-91.036 112.563 0 36.905 22.529 61.127 54.814 61.127 42.238 0 64.38-38.259 71.295-80.08 3.543-21.427 6.263-49.231 8.119-73.29.19-.062.384-.129.576-.193 16.413-5.45 32.995-10.504 49.724-15.007-2.53 48.331-3.839 92.131 9.107 123.883 10.934 26.823 34.133 46.167 70.493 45.893 25-.186 48.3-10.226 58.735-19.676 3.478-3.148 4.918-7.505 4.804-10.477-.236-6.145-4.132-11.156-9.294-14.536-10.336 5.879-21.792 10.833-38.048 11.455-16.256.624-38.342-8.243-47.417-37.944-7.832-25.618-5.553-76.082-3.415-108.507 15.76-3.119 31.638-6.261 47.619-7.99l.5-.762c-.2 2.353-.396 4.63-.585 6.805-3.144 36.002-7.295 91.859-7.123 102.968.133 8.466 4.42 11.876 10.768 11.832 6.35-.042 17.69-2.248 21.639-3.598 3.236-1.11 5.822-2.586 7.588-5.344 1.592-2.495 2.434-6.231 2.734-11.132.81-13.236 2.99-45.791 5.047-66.442 2.06-20.649 4.101-38.628 7.825-54.558 7.5-32.075 22.899-66.827 36.92-66.924 8.995-.062 9.287 16.876 6.742 40.176-2.547 23.301-9.416 108.542-9.258 118.857.14 8.996 2.798 13.741 10.531 13.687 6.35-.043 18.341-.946 23.076-2.832 2.979-1.187 5.19-2.288 6.716-4.951 1.341-2.345 2.15-5.897 2.481-11.78.759-13.528 5.675-68.135 9.975-85.393 8.2-32.915 25.359-54.926 34.883-54.991 9.524-.065 6.56 23.37 4.068 50.113-4.815 51.628-9.73 105.495 3.194 131.839 7.644 15.584 21.404 30.208 54.038 30.208 12.226 0 26.296-4.916 33.82-12.317 3.404-3.351 5.005-9.207 4.861-12.287-.288-6.364-3.228-11.797-8.47-15.301" fill="#fff"/></svg>