<?xml version="1.0" encoding="UTF-8" standalone="no"?>
<svg
   xmlns:dc="http://purl.org/dc/elements/1.1/"
   xmlns:cc="http://creativecommons.org/ns#"
   xmlns:rdf="http://www.w3.org/1999/02/22-rdf-syntax-ns#"
   xmlns:svg="http://www.w3.org/2000/svg"
   xmlns="http://www.w3.org/2000/svg"
   viewBox="0 0 666.66669 666.66669"
   height="666.66669"
   width="666.66669"
   xml:space="preserve"
   id="svg2"
   version="1.1"><metadata
     id="metadata8"><rdf:RDF><cc:Work
         rdf:about=""><dc:format>image/svg+xml</dc:format><dc:type
           rdf:resource="http://purl.org/dc/dcmitype/StillImage" /></cc:Work></rdf:RDF></metadata><defs
     id="defs6" /><g
     transform="matrix(1.3333333,0,0,-1.3333333,0,666.66667)"
     id="g10"><g
       transform="scale(0.1)"
       id="g12"><path
         id="path14"
         style="fill:#D94E3A;fill-opacity:1;fill-rule:nonzero;stroke:none"
         d="M 0,0 H 5000 V 5000 H 0 Z" /><path
         id="path16"
         style="fill:#ffffff;fill-opacity:1;fill-rule:nonzero;stroke:none"
         d="m 1753.35,1687.27 c -57.5,-282.74 -171.42,-553.21 -375.38,-553.21 -155.14,0 -259.92,124.3 -259.92,347.19 0,437.91 357.46,641.86 707.88,782.15 -11.76,-205.08 -44.07,-435.94 -72.58,-576.13 z m 1840.67,-280.65 c -84.4,314.06 -63.89,884.02 -30.75,1294.02 247.24,43.78 426.77,68.92 513.43,89.7 133.18,31.98 183.37,148.94 183.37,293.57 0,41.9 -17.35,131.43 -45.8,161.78 -188.95,-24.63 -398.1,-60.51 -606.74,-96.22 41.22,371.62 96.72,803.9 115.83,958.5 12.69,102.56 2.87,166.97 -103.41,179.59 -60.41,7.16 -239.46,-19.08 -296.37,-28.42 -93.61,-15.35 -129.23,-95.12 -141.12,-157.3 -45.24,-237.22 -88.43,-623.97 -118.93,-1047.66 -215.75,-42.5 -466.79,-97.76 -675.37,-151.97 19.21,348.7 35.4,701.54 23.3,895.64 -17.77,284.05 -208.72,470.52 -458.55,470.52 -319.01,0 -556.33,-106.89 -749.07,-269.73 -125.98,-106.5 -199.24,-228.18 -199.24,-325.72 0,-99.61 82.64,-227.54 214.38,-227.54 101.95,139.34 370.66,380.88 505.04,380.88 134.05,0 161.89,-94.41 161.89,-213.01 0,-93.3 -18,-514.58 -36.27,-880.87 C 1225.99,2472.56 690.621,2178.83 690.621,1460.55 c 0,-441.18 262.113,-745.859 687.499,-745.859 504.85,0 815.07,434.549 897.73,934.449 40.92,247.48 75.87,516.68 86.68,789.21 211.92,55.42 462.4,111.86 673.51,157.51 -28.93,-578.79 -37.95,-1173.13 91.69,-1479.9 100.75,-238.378 299.75,-404.73 615.37,-404.73 197.63,0 356.71,62.54 446.65,151 40.67,40.02 60,104.329 60,154.29 0,76.16 -43.2,149.03 -105.83,190.9 -72.22,-40.94 -171.79,-66.15 -252.21,-66.15 -167.59,0 -256.13,110.68 -297.69,265.35" /></g></g></svg>
