<?xml version="1.0" encoding="UTF-8" standalone="no"?>
<svg
   xmlns:dc="http://purl.org/dc/elements/1.1/"
   xmlns:cc="http://creativecommons.org/ns#"
   xmlns:rdf="http://www.w3.org/1999/02/22-rdf-syntax-ns#"
   xmlns:svg="http://www.w3.org/2000/svg"
   xmlns="http://www.w3.org/2000/svg"
   viewBox="0 0 475.92001 477"
   height="477"
   width="475.92001"
   xml:space="preserve"
   id="svg2"
   version="1.1"><metadata
     id="metadata8"><rdf:RDF><cc:Work
         rdf:about=""><dc:format>image/svg+xml</dc:format><dc:type
           rdf:resource="http://purl.org/dc/dcmitype/StillImage" /></cc:Work></rdf:RDF></metadata><defs
     id="defs6"><clipPath
       id="clipPath20"
       clipPathUnits="userSpaceOnUse"><path
         id="path18"
         d="M 0,0 H 3569 V 3577.55 H 0 Z" /></clipPath></defs><g
     transform="matrix(1.3333333,0,0,-1.3333333,0,477)"
     id="g10"><g
       transform="scale(0.1)"
       id="g12"><g
         id="g14"><g
           clip-path="url(#clipPath20)"
           id="g16"><path
             id="path22"
             style="fill:#D94E3A;fill-opacity:1;fill-rule:nonzero;stroke:none"
             d="M 1062.73,976.039 C 1005.23,693.301 891.312,422.832 687.348,422.832 c -155.137,0 -259.914,124.297 -259.914,347.188 0,437.91 357.461,641.86 707.876,782.15 -11.77,-205.08 -44.07,-435.94 -72.58,-576.131 z M 2903.4,695.391 c -84.4,314.059 -63.89,884.029 -30.75,1294.019 247.24,43.78 426.77,68.92 513.43,89.7 133.18,31.98 183.37,148.94 183.37,293.57 0,41.9 -17.35,131.43 -45.8,161.78 -188.95,-24.63 -398.1,-60.51 -606.74,-96.22 41.22,371.62 96.72,803.9 115.83,958.5 12.69,102.56 2.87,166.97 -103.41,179.59 -60.41,7.16 -239.46,-19.08 -296.37,-28.42 -93.61,-15.34 -129.23,-95.12 -141.12,-157.3 -45.24,-237.22 -88.43,-623.97 -118.93,-1047.65 -215.75,-42.5 -466.79,-97.77 -675.37,-151.98 19.21,348.7 35.4,701.54 23.3,895.64 -17.77,284.06 -208.72,470.52 -458.55,470.52 -319.009,0 -556.333,-106.89 -749.067,-269.73 -125.989,-106.5 -199.239,-228.18 -199.239,-325.72 0,-99.61 82.633,-227.54 214.375,-227.54 101.953,139.34 370.664,380.89 505.041,380.89 134.05,0 161.89,-94.42 161.89,-213.02 0,-93.3 -18,-514.58 -36.27,-880.87 C 535.367,1761.33 0,1467.6 0,749.32 0,308.148 262.113,3.46094 687.496,3.46094 c 504.854,0 815.074,434.55106 897.734,934.44906 40.92,247.48 75.87,516.68 86.68,789.21 211.92,55.42 462.4,111.87 673.51,157.51 -28.93,-578.79 -37.95,-1173.118 91.69,-1479.9 C 2537.86,166.352 2736.86,0 3052.48,0 c 197.63,0 356.71,62.5391 446.65,151 40.67,40.02 60,104.332 60,154.289 0,76.16 -43.2,149.031 -105.83,190.902 -72.22,-40.929 -171.79,-66.152 -252.21,-66.152 -167.59,0 -256.13,110.68 -297.69,265.352" /></g></g></g></g></svg>
