<?xml version="1.0" encoding="UTF-8" standalone="no"?>
<svg
   xmlns:dc="http://purl.org/dc/elements/1.1/"
   xmlns:cc="http://creativecommons.org/ns#"
   xmlns:rdf="http://www.w3.org/1999/02/22-rdf-syntax-ns#"
   xmlns:svg="http://www.w3.org/2000/svg"
   xmlns="http://www.w3.org/2000/svg"
   viewBox="0 0 666.66669 666.66669"
   height="666.66669"
   width="666.66669"
   xml:space="preserve"
   id="svg2"
   version="1.1"><metadata
     id="metadata8"><rdf:RDF><cc:Work
         rdf:about=""><dc:format>image/svg+xml</dc:format><dc:type
           rdf:resource="http://purl.org/dc/dcmitype/StillImage" /></cc:Work></rdf:RDF></metadata><defs
     id="defs6" /><g
     transform="matrix(1.3333333,0,0,-1.3333333,0,666.66667)"
     id="g10"><g
       transform="scale(0.1)"
       id="g12"><path
         id="path14"
         style="fill:#D94E3A;fill-opacity:1;fill-rule:nonzero;stroke:none"
         d="M 0,0 H 5000 V 5000 H 0 Z" /><path
         id="path16"
         style="fill:#ffffff;fill-opacity:1;fill-rule:nonzero;stroke:none"
         d="m 898.57,1541.82 c -77.379,0 -133.32,68.45 -133.32,208.33 0,236.81 193.566,438.26 399.29,553.94 -13.54,-146.47 -33.91,-304.07 -48.31,-400.89 -26.64,-179.04 -89.68,-361.38 -217.66,-361.38 z m 3643.98,401.34 c -45.31,-25.68 -93.5,-41.5 -143.95,-41.5 -114.66,0 -180.78,57.72 -208.22,151.09 -55.66,189.37 -3.75,532.58 15.39,757.11 25.88,303.7 38.22,422.92 43.17,486.45 11.58,148.25 -46.35,313.24 -214.98,312.08 -156.74,-1.09 -361.16,-189.02 -451.47,-378.17 22.01,242.25 -47.85,447.62 -232.36,446.34 -184.51,-1.27 -373.5,-275.43 -431.17,-393.39 11.67,110.21 18.04,156.43 23.08,215.99 5.02,59.56 3.01,102.64 -59.26,108.74 -37.75,3.7 -111.42,-9.33 -153.98,-16.56 -54.51,-9.27 -72.19,-48.17 -82.25,-132.52 -7.24,-60.9 -26.29,-302.26 -45.11,-534.81 -42.76,-3.42 -112.77,-16.97 -154.67,-22.81 -78.71,-10.97 -129,-19.66 -205.94,-33.34 25.98,271.86 64.05,562.01 77.19,668.41 7.95,64.36 1.8,104.76 -64.88,112.68 -37.89,4.5 -152.66,-11.96 -188.36,-17.82 -58.74,-9.64 -81.1,-59.69 -88.54,-98.7 -30.08,-157.72 -58.72,-442.93 -77.96,-732 -125.98,-30.83 -250.6,-66.36 -374.78,-107.32 12.36,224.58 20.48,475.11 12.75,598.7 -11.13,178.22 -113.09,295.22 -269.83,295.22 -166.99,0 -359.721,-89.76 -480.654,-191.95 -79.078,-66.8 -123.559,-144.16 -123.559,-205.36 0,-62.5 31.301,-119.09 113.953,-119.09 63.957,87.45 231.34,240.85 324.81,240.85 84.1,0 105.56,-73 105.56,-147.4 0,-61.2 -12.35,-343.85 -24.32,-582.72 -320.761,-143.33 -682.772,-416.64 -682.772,-844.22 0,-276.79 168.968,-458.45 411.109,-458.45 316.783,0 482.853,286.94 534.713,600.6 26.57,160.7 46.97,369.23 60.89,549.67 1.43,0.47 2.88,0.97 4.32,1.45 123.1,40.88 247.46,78.78 372.93,112.55 -18.97,-362.48 -28.79,-690.98 68.3,-929.12 82.01,-201.17 256,-346.25 528.7,-344.2 187.5,1.4 362.25,76.7 440.51,147.57 26.09,23.61 36.89,56.29 36.03,78.58 -1.77,46.09 -30.99,83.67 -69.7,109.02 -77.52,-44.09 -163.44,-81.25 -285.36,-85.91 -121.92,-4.68 -287.57,61.82 -355.63,284.58 -58.74,192.13 -41.65,570.61 -25.61,813.8 118.2,23.39 237.28,46.96 357.14,59.92 l 3.75,5.72 c -1.5,-17.65 -2.97,-34.72 -4.39,-51.04 -23.58,-270.01 -54.71,-688.94 -53.42,-772.26 1,-63.49 33.15,-89.07 80.76,-88.74 47.62,0.32 132.68,16.86 162.29,26.99 24.27,8.32 43.67,19.39 56.91,40.08 11.94,18.71 18.26,46.73 20.51,83.49 6.07,99.27 22.42,343.43 37.85,498.31 15.45,154.87 30.76,289.71 58.69,409.19 56.25,240.56 171.74,501.2 276.9,501.93 67.46,0.46 69.65,-126.57 50.56,-301.32 -19.1,-174.76 -70.62,-814.07 -69.43,-891.43 1.05,-67.47 20.98,-103.06 78.98,-102.65 47.62,0.32 137.56,7.09 173.07,21.24 22.34,8.9 38.93,17.16 50.37,37.13 10.06,17.59 16.13,44.23 18.61,88.35 5.69,101.46 42.56,511.01 74.81,640.45 61.5,246.86 190.19,411.94 261.62,412.43 71.43,0.49 49.2,-175.27 30.51,-375.85 -36.11,-387.21 -72.97,-791.21 23.96,-988.79 57.33,-116.88 160.53,-226.56 405.28,-226.56 91.7,0 197.22,36.87 253.65,92.38 25.53,25.13 37.54,69.05 36.46,92.15 -2.16,47.73 -24.21,88.48 -63.53,114.76" /></g></g></svg>
