<svg xmlns="http://www.w3.org/2000/svg" viewBox="0 0 666.66669 666.66669" height="666.667" width="666.667"><path d="M0 666.667h666.667V0H0z" fill="#dc3a34"/><path d="M233.78 441.697c-7.667 37.699-22.856 73.762-50.05 73.762-20.686 0-34.657-16.574-34.657-46.292 0-58.388 47.662-85.582 94.384-104.287-1.568 27.344-5.876 58.125-9.677 76.817zm245.423 37.42c-11.254-41.874-8.519-117.869-4.1-172.536 32.965-5.837 56.902-9.189 68.457-11.96 17.757-4.264 24.45-19.858 24.45-39.142 0-5.587-2.314-17.524-6.107-21.571-25.194 3.284-53.08 8.068-80.899 12.83 5.496-49.55 12.896-107.187 15.444-127.8 1.692-13.675.383-22.263-13.788-23.946-8.055-.955-31.928 2.544-39.516 3.79-12.481 2.046-17.23 12.682-18.816 20.973-6.032 31.629-11.79 83.196-15.857 139.688-28.767 5.666-62.239 13.034-90.05 20.262 2.562-46.493 4.72-93.538 3.107-119.418-2.37-37.874-27.83-62.736-61.14-62.736-42.535 0-74.177 14.252-99.876 35.964-16.797 14.2-26.565 30.424-26.565 43.429 0 13.281 11.018 30.339 28.584 30.339 13.593-18.579 49.421-50.784 67.338-50.784 17.874 0 21.586 12.588 21.586 28.401 0 12.44-2.4 68.61-4.836 117.45-83.154 34.642-154.536 73.806-154.536 169.577 0 58.824 34.948 99.448 91.666 99.448 67.314 0 108.676-57.94 119.698-124.594 5.456-32.997 10.116-68.89 11.557-105.228 28.256-7.389 61.653-14.914 89.801-21.001-3.857 77.172-5.06 156.417 12.226 197.32 13.433 31.784 39.966 53.964 82.049 53.964 26.35 0 47.561-8.339 59.553-20.133 5.423-5.336 8-13.91 8-20.572 0-10.155-5.76-19.871-14.11-25.454-9.63 5.459-22.906 8.82-33.628 8.82-22.346 0-34.151-14.757-39.692-35.38" fill="#fff"/></svg>