<?xml version="1.0" encoding="UTF-8"?>
<svg width="24px" height="24px" viewBox="0 0 24 24" version="1.1" xmlns="http://www.w3.org/2000/svg" xmlns:xlink="http://www.w3.org/1999/xlink">
    <!-- Generator: Sketch 43.2 (39069) - http://www.bohemiancoding.com/sketch -->
    <title>linkedin</title>
    <desc>Created with Sketch.</desc>
    <defs></defs>
    <g id="Page-1" stroke="none" stroke-width="1" fill="none" fill-rule="evenodd">
        <g id="icons" transform="translate(-216.000000, -206.000000)" fill="#000000">
            <g id="linkedin" transform="translate(215.000000, 206.000000)">
                <path d="M20.0427778,19.0422222 L17.0766667,19.0422222 L17.0766667,14.4005556 C17.0766667,13.2938889 17.0577778,11.87 15.5355556,11.87 C13.9916667,11.87 13.7561111,13.0761111 13.7561111,14.3216667 L13.7561111,19.0422222 L10.7933333,19.0422222 L10.7933333,9.49777778 L13.6366667,9.49777778 L13.6366667,10.8027778 L13.6777778,10.8027778 C14.0733333,10.0522222 15.0411111,9.26111111 16.4838889,9.26111111 C19.4877778,9.26111111 20.0427778,11.2372222 20.0427778,13.8077778 L20.0427778,19.0422222 Z M7.44888889,8.19388889 C6.49611111,8.19388889 5.72777778,7.42333333 5.72777778,6.47333333 C5.72777778,5.52388889 6.49611111,4.75333333 7.44888889,4.75333333 C8.39777778,4.75333333 9.16777778,5.52388889 9.16777778,6.47333333 C9.16777778,7.42333333 8.39777778,8.19388889 7.44888889,8.19388889 Z M5.96333333,19.0422222 L8.93277778,19.0422222 L8.93277778,9.49777778 L5.96333333,9.49777778 L5.96333333,19.0422222 Z M21.52,2 L4.475,2 C3.66111111,2 3,2.64555556 3,3.44222222 L3,20.5566667 C3,21.3533333 3.66111111,22 4.475,22 L21.52,22 C22.3355556,22 22.9994444,21.3533333 22.9994444,20.5566667 L22.9994444,3.44222222 C22.9994444,2.64555556 22.3355556,2 21.52,2 L21.52,2 Z" id="Fill-4"></path>
            </g>
        </g>
    </g>
</svg>