<?xml version="1.0" encoding="UTF-8"?>
<svg width="24px" height="24px" viewBox="0 0 24 24" version="1.1" xmlns="http://www.w3.org/2000/svg" xmlns:xlink="http://www.w3.org/1999/xlink">
    <!-- Generator: Sketch 43.2 (39069) - http://www.bohemiancoding.com/sketch -->
    <title>link</title>
    <desc>Created with Sketch.</desc>
    <defs></defs>
    <g id="Page-1" stroke="none" stroke-width="1" fill="none" fill-rule="evenodd">
        <g id="icons" transform="translate(-264.000000, -256.000000)" fill-rule="nonzero" fill="#000000">
            <g id="link" transform="translate(264.000000, 256.000000)">
                <g id="icon" transform="translate(2.000000, 2.000000)">
                    <path d="M2.28545455,13.8427273 L3.57090909,12.5572727 L2.92818182,11.9145455 C2.57363636,11.56 2.57363636,10.9836364 2.92818182,10.6281818 L10.6427273,2.91454545 C10.8136364,2.74272727 11.0418182,2.64818182 11.2854545,2.64818182 C11.5290909,2.64818182 11.7563636,2.74272727 11.9290909,2.91454545 L12.5718182,3.55727273 L13.8563636,2.27272727 L13.2145455,1.63 C12.1836364,0.599090909 10.3863636,0.599090909 9.35727273,1.63 L1.64363636,9.34272727 C0.58,10.4063636 0.58,12.1363636 1.64363636,13.2 L2.28545455,13.8427273 Z" id="Shape"></path>
                    <path d="M18.3563636,6.77363636 L17.7127273,6.13090909 L16.4272727,7.41636364 L17.0709091,8.05909091 C17.2427273,8.23090909 17.3363636,8.45818182 17.3363636,8.70181818 C17.3363636,8.94363636 17.2418182,9.17181818 17.0709091,9.34363636 L9.35727273,17.0581818 C9.01363636,17.4009091 8.41454545,17.4009091 8.07090909,17.0581818 L7.42818182,16.4154545 L6.14272727,17.7 L6.78545455,18.3427273 C7.30090909,18.8581818 7.98545455,19.1418182 8.71454545,19.1418182 C9.44272727,19.1418182 10.1272727,18.8581818 10.6427273,18.3427273 L18.3563636,10.6290909 C18.8709091,10.1145455 19.1545455,9.43 19.1545455,8.70181818 C19.1545455,7.97363636 18.8709091,7.28818182 18.3563636,6.77363636 Z" id="Shape"></path>
                    <rect id="Rectangle-path" transform="translate(14.498893, 5.486903) rotate(45.000000) translate(-14.498893, -5.486903) " x="13.5898108" y="0.941492227" width="1.81816438" height="9.09082191"></rect>
                    <rect id="Rectangle-path" transform="translate(5.499286, 14.485432) rotate(44.991897) translate(-5.499286, -14.485432) " x="4.59065861" y="9.93956619" width="1.81725532" height="9.09173108"></rect>
                </g>
            </g>
        </g>
    </g>
</svg>