<svg width="24" height="28" viewBox="0 0 24 28" xmlns="http://www.w3.org/2000/svg"><title>558F9399-1169-4A6F-9E4E-E80D909D5FC6</title><g fill="none" fill-rule="evenodd"><path d="M-4-2h32v32H-4z"/><path d="M12 .667C6.036.667 0 2.499 0 6v16c0 3.501 6.036 5.333 12 5.333S24 25.501 24 22V6C24 2.499 17.964.667 12 .667zm0 2.666c6.063 0 9.333 1.894 9.333 2.667 0 .773-3.27 2.667-9.333 2.667-6.063 0-9.333-1.894-9.333-2.667 0-.773 3.27-2.667 9.333-2.667zm0 21.334c-6.063 0-9.333-1.894-9.333-2.667v-1.867C4.98 21.364 8.499 22 12 22c3.501 0 7.019-.637 9.333-1.867V22c0 .773-3.27 2.667-9.333 2.667zm0-5.334c-6.063 0-9.333-1.893-9.333-2.666V14.8C4.98 16.03 8.499 16.667 12 16.667c3.501 0 7.019-.638 9.333-1.867v1.867c0 .773-3.27 2.666-9.333 2.666zM12 14c-6.063 0-9.333-1.893-9.333-2.667V9.467C4.98 10.696 8.499 11.333 12 11.333c3.501 0 7.019-.637 9.333-1.866v1.866c0 .774-3.27 2.667-9.333 2.667z" fill="#000000"/></g></svg>
