<?xml version="1.0" encoding="UTF-8"?>
<svg width="24px" height="24px" viewBox="0 0 24 24" version="1.1" xmlns="http://www.w3.org/2000/svg" xmlns:xlink="http://www.w3.org/1999/xlink">
    <!-- Generator: Sketch 43.2 (39069) - http://www.bohemiancoding.com/sketch -->
    <title>youtube</title>
    <desc>Created with Sketch.</desc>
    <defs></defs>
    <g id="Page-1" stroke="none" stroke-width="1" fill="none" fill-rule="evenodd">
        <g id="icons" transform="translate(-264.000000, -206.000000)" fill="#000000">
            <g id="youtube" transform="translate(262.000000, 206.000000)">
                <path d="M11.5222752,15.1487769 L11.5211709,8.35751326 L18.0060698,11.7649765 L11.5222752,15.1487769 Z M25.7603407,7.18101557 C25.7603407,7.18101557 25.5258505,5.51540492 24.8062147,4.78192478 C23.8935827,3.81924541 22.8706133,3.8144655 22.401492,3.75812404 C19.0430427,3.51361489 14.0051926,3.51361489 14.0051926,3.51361489 L13.9947604,3.51361489 C13.9947604,3.51361489 8.95702775,3.51361489 5.59846101,3.75812404 C5.12931617,3.8144655 4.1067228,3.81924541 3.19376181,4.78192478 C2.47417299,5.51540492 2.24001175,7.18101557 2.24001175,7.18101557 C2.24001175,7.18101557 2,9.13699415 2,11.0929491 L2,12.9266612 C2,14.8825925 2.24001175,16.8385474 2.24001175,16.8385474 C2.24001175,16.8385474 2.47417299,18.5041817 3.19376181,19.2376619 C4.1067228,20.2003649 5.30595918,20.1699107 5.84009398,20.2708095 C7.76011748,20.4562323 14,20.5136149 14,20.5136149 C14,20.5136149 19.0430427,20.5059718 22.401492,20.2614863 C22.8706133,20.2051211 23.8935827,20.2003649 24.8062147,19.2376619 C25.5258505,18.5041817 25.7603407,16.8385474 25.7603407,16.8385474 C25.7603407,16.8385474 26,14.8825925 26,12.9266612 L26,11.0929491 C26,9.13699415 25.7603407,7.18101557 25.7603407,7.18101557 L25.7603407,7.18101557 Z" id="icon"></path>
            </g>
        </g>
    </g>
</svg>