<svg xmlns="http://www.w3.org/2000/svg" xmlns:xlink="http://www.w3.org/1999/xlink" width="25" height="24" viewBox="0 0 25 24">
    <defs>
        <path id="a" d="M12.06.03H.029v23.5h24.066V.03H12.06z"/>
    </defs>
    <g fill="none" fill-rule="evenodd">
        <mask id="b" fill="#fff">
            <use xlink:href="#a"/>
        </mask>
        <path fill="#FFF" d="M12.048.03C5.395.03 0 5.424 0 12.078c0 5.322 3.452 9.838 8.24 11.43.6.112.823-.26.823-.58 0-.286-.012-1.234-.017-2.242-3.353.728-4.059-1.42-4.059-1.42-.547-1.394-1.338-1.763-1.338-1.763-1.092-.749.083-.734.083-.734 1.21.087 1.847 1.243 1.847 1.243 1.074 1.842 2.818 1.308 3.506 1.001.108-.78.419-1.31.764-1.612-2.676-.303-5.489-1.336-5.489-5.954 0-1.314.471-2.39 1.24-3.233-.124-.303-.536-1.528.119-3.188 0 0 1.01-.323 3.312 1.236a11.59 11.59 0 0 1 3.017-.406 11.6 11.6 0 0 1 3.016.406c2.3-1.56 3.311-1.236 3.311-1.236.655 1.66.243 2.885.118 3.188.772.843 1.24 1.919 1.24 3.233 0 4.629-2.82 5.647-5.501 5.945.432.373.816 1.107.816 2.232 0 1.612-.013 2.908-.013 3.305 0 .321.217.696.827.579 4.785-1.596 8.232-6.11 8.232-11.43C24.094 5.424 18.7.03 12.046.03h.002z" mask="url(#b)"/>
    </g>
</svg>
