<svg width="27" height="28" viewBox="0 0 27 28" xmlns="http://www.w3.org/2000/svg"><title>5381D97B-068C-42D1-855C-9C9EB4B283C6</title><g fill="none" fill-rule="evenodd"><path d="M-3-2h32v32H-3z"/><g fill="#000000"><path d="M15.668.667v2.666h6.115L1.392 23.724l1.885 1.885L23.668 5.22v6.114h2.667V.667zM1.944 10.943l3.057-3.058 3.058 3.058 1.885-1.886L6.887 6l3.057-3.057-1.885-1.886L5 4.115 1.944 1.057.059 2.943 3.116 6 .059 9.057z"/><path d="M20.335 15.333c-3.308 0-6 2.692-6 6s2.692 6 6 6 6-2.692 6-6-2.692-6-6-6zm0 9.334A3.337 3.337 0 0 1 17 21.333 3.337 3.337 0 0 1 20.335 18a3.337 3.337 0 0 1 3.333 3.333 3.337 3.337 0 0 1-3.333 3.334z"/></g></g></svg>
