<?xml version="1.0" encoding="UTF-8"?>
<svg width="24px" height="24px" viewBox="0 0 24 24" version="1.1" xmlns="http://www.w3.org/2000/svg" xmlns:xlink="http://www.w3.org/1999/xlink">
    <!-- Generator: Sketch 43.2 (39069) - http://www.bohemiancoding.com/sketch -->
    <title>instagram</title>
    <desc>Created with Sketch.</desc>
    <defs></defs>
    <g id="Page-1" stroke="none" stroke-width="1" fill="none" fill-rule="evenodd">
        <g id="icons" transform="translate(-72.000000, -256.000000)" fill="#000000">
            <g id="instagram" transform="translate(66.000000, 256.000000)">
                <g id="icon" transform="translate(8.000000, 2.000000)">
                    <path d="M9.99686508,0.00630952381 C7.28186508,0.00630952381 6.94142857,0.0178174603 5.87515873,0.066468254 C4.81111111,0.115 4.08440476,0.284007937 3.44853175,0.531150794 C2.79115079,0.786587302 2.23365079,1.1284127 1.67785714,1.68416667 C1.12210317,2.23996032 0.780277778,2.79746032 0.52484127,3.45484127 C0.277698413,4.09071429 0.108690476,4.81742063 0.0601587302,5.88146825 C0.0115079365,6.9477381 0,7.2881746 0,10.0031746 C0,12.7181349 0.0115079365,13.0585714 0.0601587302,14.1248413 C0.108690476,15.1888889 0.277698413,15.9155952 0.52484127,16.5514683 C0.780277778,17.2088492 1.12210317,17.7663492 1.67785714,18.3221429 C2.23365079,18.8778968 2.79115079,19.2197222 3.44853175,19.4751984 C4.08440476,19.7223016 4.81111111,19.8913095 5.87515873,19.9398413 C6.94142857,19.9884921 7.28186508,20 9.99686508,20 C12.7118254,20 13.0522619,19.9884921 14.1185317,19.9398413 C15.1825794,19.8913095 15.9092857,19.7223016 16.5451587,19.4751984 C17.2025397,19.2197222 17.7600397,18.8778968 18.3158333,18.3221429 C18.8715873,17.7663492 19.2134127,17.2088492 19.4688889,16.5514683 C19.7159921,15.9155952 19.885,15.1888889 19.9335317,14.1248413 C19.9821825,13.0585714 19.9936905,12.7181349 19.9936905,10.0031746 C19.9936905,7.2881746 19.9821825,6.9477381 19.9335317,5.88146825 C19.885,4.81742063 19.7159921,4.09071429 19.4688889,3.45484127 C19.2134127,2.79746032 18.8715873,2.23996032 18.3158333,1.68416667 C17.7600397,1.1284127 17.2025397,0.786587302 16.5451587,0.531150794 C15.9092857,0.284007937 15.1825794,0.115 14.1185317,0.066468254 C13.0522619,0.0178174603 12.7118254,0.00630952381 9.99686508,0.00630952381 Z M9.99686508,1.80753968 C12.6661111,1.80753968 12.9823016,1.8177381 14.0364286,1.86583333 C15.0111111,1.91027778 15.5404365,2.07313492 15.8926984,2.21003968 C16.3593254,2.39138889 16.6923413,2.60801587 17.0421429,2.95785714 C17.3919841,3.30765873 17.6086111,3.6406746 17.7899603,4.10730159 C17.9268651,4.45956349 18.0897222,4.98888889 18.1341667,5.96357143 C18.1822619,7.01769841 18.1924603,7.33388889 18.1924603,10.0031746 C18.1924603,12.6724206 18.1822619,12.9886111 18.1341667,14.0427381 C18.0897222,15.0174206 17.9268651,15.546746 17.7899603,15.8990079 C17.6086111,16.3656349 17.3919841,16.6986508 17.0421429,17.0484524 C16.6923413,17.3982937 16.3593254,17.6149206 15.8926984,17.7962698 C15.5404365,17.9331746 15.0111111,18.0960317 14.0364286,18.1404762 C12.9824603,18.1885714 12.6663095,18.1987698 9.99686508,18.1987698 C7.32738095,18.1987698 7.01126984,18.1885714 5.9572619,18.1404762 C4.98257937,18.0960317 4.45325397,17.9331746 4.10099206,17.7962698 C3.63436508,17.6149206 3.30134921,17.3982937 2.95154762,17.0484524 C2.60174603,16.6986508 2.38507937,16.3656349 2.20373016,15.8990079 C2.0668254,15.546746 1.90396825,15.0174206 1.85952381,14.0427381 C1.81142857,12.9886111 1.80123016,12.6724206 1.80123016,10.0031746 C1.80123016,7.33388889 1.81142857,7.01769841 1.85952381,5.96357143 C1.90396825,4.98888889 2.0668254,4.45956349 2.20373016,4.10730159 C2.38507937,3.6406746 2.60170635,3.30765873 2.95154762,2.95785714 C3.30134921,2.60801587 3.63436508,2.39138889 4.10099206,2.21003968 C4.45325397,2.07313492 4.98257937,1.91027778 5.9572619,1.86583333 C7.01138889,1.8177381 7.32757937,1.80753968 9.99686508,1.80753968 L9.99686508,1.80753968 Z" id="Fill-1"></path>
                    <path d="M9.99686508,13.3354365 C8.15646825,13.3354365 6.66456349,11.8435317 6.66456349,10.0031746 C6.66456349,8.16277778 8.15646825,6.67087302 9.99686508,6.67087302 C11.8372222,6.67087302 13.329127,8.16277778 13.329127,10.0031746 C13.329127,11.8435317 11.8372222,13.3354365 9.99686508,13.3354365 Z M9.99686508,4.86964286 C7.16166667,4.86964286 4.86333333,7.16797619 4.86333333,10.0031746 C4.86333333,12.8383333 7.16166667,15.1366667 9.99686508,15.1366667 C12.8320238,15.1366667 15.1303571,12.8383333 15.1303571,10.0031746 C15.1303571,7.16797619 12.8320238,4.86964286 9.99686508,4.86964286 L9.99686508,4.86964286 Z" id="Fill-4"></path>
                    <path d="M16.5328175,4.6668254 C16.5328175,5.32936508 15.9957143,5.86642857 15.3331746,5.86642857 C14.6706746,5.86642857 14.1335714,5.32936508 14.1335714,4.6668254 C14.1335714,4.00428571 14.6706746,3.46718254 15.3331746,3.46718254 C15.9957143,3.46718254 16.5328175,4.00428571 16.5328175,4.6668254" id="Fill-5"></path>
                </g>
            </g>
        </g>
    </g>
</svg>
