<?xml version="1.0" encoding="UTF-8"?>
<svg width="24px" height="24px" viewBox="0 0 24 24" version="1.1" xmlns="http://www.w3.org/2000/svg" xmlns:xlink="http://www.w3.org/1999/xlink">
    <!-- Generator: Sketch 43.2 (39069) - http://www.bohemiancoding.com/sketch -->
    <title>strategy</title>
    <desc>Created with Sketch.</desc>
    <defs></defs>
    <g id="Page-1" stroke="none" stroke-width="1" fill="none" fill-rule="evenodd">
        <g id="icons" transform="translate(-120.000000, -256.000000)" fill-rule="nonzero" fill="#000000">
            <g id="strategy" transform="translate(117.000000, 256.000000)">
                <g id="icon" transform="translate(5.250000, 2.500000)">
                    <polygon id="Shape" points="11.4295238 0 11.4295238 1.9047619 15.7971429 1.9047619 1.23238095 16.4695238 2.57904762 17.8161905 17.1438095 3.25142857 17.1438095 7.61904762 19.0485714 7.61904762 19.0485714 0"></polygon>
                    <polygon id="Shape" points="1.62666667 7.34 3.81047619 5.15619048 5.99428571 7.34 7.34095238 5.99333333 5.15714286 3.80952381 7.34095238 1.62571429 5.99428571 0.279047619 3.81047619 2.46285714 1.62666667 0.279047619 0.28 1.62571429 2.46380952 3.80952381 0.28 5.99333333"></polygon>
                    <path d="M14.7628571,10.4761905 C12.4,10.4761905 10.4771429,12.3990476 10.4771429,14.7619048 C10.4771429,17.1247619 12.4,19.047619 14.7628571,19.047619 C17.1257143,19.047619 19.0485714,17.1247619 19.0485714,14.7619048 C19.0485714,12.3990476 17.1257143,10.4761905 14.7628571,10.4761905 Z M14.7628571,17.1428571 C13.4504762,17.1428571 12.3819048,16.0752381 12.3819048,14.7619048 C12.3819048,13.4485714 13.4504762,12.3809524 14.7628571,12.3809524 C16.0752381,12.3809524 17.1438095,13.4485714 17.1438095,14.7619048 C17.1438095,16.0752381 16.0752381,17.1428571 14.7628571,17.1428571 Z" id="Shape"></path>
                </g>
            </g>
        </g>
    </g>
</svg>