<?xml version="1.0" encoding="UTF-8"?>
<svg width="24px" height="24px" viewBox="0 0 24 24" version="1.1" xmlns="http://www.w3.org/2000/svg" xmlns:xlink="http://www.w3.org/1999/xlink">
    <!-- Generator: Sketch 43.2 (39069) - http://www.bohemiancoding.com/sketch -->
    <title>github</title>
    <desc>Created with Sketch.</desc>
    <defs></defs>
    <g id="Page-1" stroke="none" stroke-width="1" fill="none" fill-rule="evenodd">
        <g id="icons" transform="translate(-24.000000, -256.000000)" fill="#000000">
            <g id="github" transform="translate(24.000000, 256.000000)">
                <path d="M11.9993861,2 C6.47759362,2 2,6.5904205 2,12.2540162 C2,16.7833822 4.86494782,20.6260419 8.83916513,21.9824598 C9.33947207,22.0762447 9.52179251,21.7596422 9.52179251,21.4877292 C9.52179251,21.2447699 9.51319828,20.5996059 9.50828729,19.7442129 C6.72682627,20.3635703 6.13996317,18.3695415 6.13996317,18.3695415 C5.68508287,17.1849574 5.02946593,16.8702433 5.02946593,16.8702433 C4.12154696,16.2338913 5.09821977,16.2464799 5.09821977,16.2464799 C6.10190301,16.3194935 6.62983425,17.30329 6.62983425,17.30329 C7.52179251,18.869937 8.9699202,18.417378 9.54020872,18.1555359 C9.631062,17.4927479 9.88888889,17.0408184 10.174954,16.784641 C7.95457336,16.525946 5.62001228,15.6460053 5.62001228,11.7171139 C5.62001228,10.5979904 6.00982198,9.68280168 6.64947821,8.96588286 C6.54634745,8.7065584 6.20319214,7.66422516 6.7470841,6.25241751 C6.7470841,6.25241751 7.58686311,5.97672792 9.49723757,7.30356275 C10.2946593,7.07570971 11.150399,6.96241262 12.0006139,6.95800662 C12.849601,6.96241262 13.7053407,7.07570971 14.5039902,7.30356275 C16.4131369,5.97672792 17.2510743,6.25241751 17.2510743,6.25241751 C17.7968079,7.66422516 17.4536525,8.7065584 17.3505218,8.96588286 C17.9914058,9.68280168 18.37876,10.5979904 18.37876,11.7171139 C18.37876,15.6560761 16.0405157,16.5227989 13.8127686,16.7764585 C14.1718846,17.0930609 14.4917127,17.7187126 14.4917127,18.6754436 C14.4917127,20.045709 14.4794352,21.1516145 14.4794352,21.4877292 C14.4794352,21.7621599 14.6593002,22.0812801 15.1669736,21.981201 C19.1368938,20.6222653 22,16.7821233 22,12.2540162 C22,6.5904205 17.5224064,2 11.9993861,2" id="icon"></path>
            </g>
        </g>
    </g>
</svg>
