<svg xmlns="http://www.w3.org/2000/svg" width="15" height="21" viewBox="0 0 15 21">
    <g fill="none" fill-rule="evenodd">
        <path d="M-13.599-.999h23.04v23.041h-23.04z"/>
        <g fill="#FFF">
            <path d="M7.52 10.52a2.884 2.884 0 0 1-2.88-2.88 2.884 2.884 0 0 1 2.88-2.88 2.884 2.884 0 0 1 2.88 2.88 2.884 2.884 0 0 1-2.88 2.88zm0-3.84a.961.961 0 1 0 .96.96.962.962 0 0 0-.96-.96z"/>
            <path d="M7.52 20.76C5.255 17.74.8 11.42.8 7.64A6.727 6.727 0 0 1 7.52.92a6.727 6.727 0 0 1 6.72 6.72c0 3.779-4.455 10.1-6.72 13.12zm0-17.92a4.805 4.805 0 0 0-4.8 4.8c0 2.487 2.983 7.28 4.8 9.88 1.816-2.601 4.8-7.395 4.8-9.88 0-2.647-2.153-4.8-4.8-4.8z"/>
        </g>
    </g>
</svg>
