<svg width="24" height="20" viewBox="0 0 24 20" xmlns="http://www.w3.org/2000/svg" xmlns:xlink="http://www.w3.org/1999/xlink"><title>6CEF0026-B07F-4A87-A9B9-5EB0CFDDD450</title><defs><path id="a" d="M0 0h24v24H0z"/></defs><g transform="translate(0 -2)" fill="none"><mask id="b" fill="#000000"><use xlink:href="#a"/></mask><path d="M24 4.609a9.897 9.897 0 0 1-2.829.77 4.91 4.91 0 0 0 2.165-2.706A9.899 9.899 0 0 1 20.21 3.86a4.933 4.933 0 0 0-3.593-1.544c-2.72 0-4.924 2.189-4.924 4.89 0 .382.043.756.127 1.113A14.013 14.013 0 0 1 1.67 3.211a4.878 4.878 0 0 0 1.524 6.528 4.931 4.931 0 0 1-2.23-.612v.062c0 2.369 1.697 4.345 3.95 4.794a4.965 4.965 0 0 1-2.224.084 4.924 4.924 0 0 0 4.6 3.395 9.923 9.923 0 0 1-6.115 2.094c-.398 0-.79-.023-1.175-.069a14.007 14.007 0 0 0 7.548 2.197c9.057 0 14.01-7.45 14.01-13.912 0-.212-.006-.423-.015-.633A9.961 9.961 0 0 0 24 4.61z" fill="#000000" mask="url(#b)"/></g></svg>
