<?xml version="1.0" encoding="UTF-8"?>
<svg width="24px" height="24px" viewBox="0 0 24 24" version="1.1" xmlns="http://www.w3.org/2000/svg" xmlns:xlink="http://www.w3.org/1999/xlink">
    <!-- Generator: Sketch 43.2 (39069) - http://www.bohemiancoding.com/sketch -->
    <title>plus</title>
    <desc>Created with Sketch.</desc>
    <defs></defs>
    <g id="Page-1" stroke="none" stroke-width="1" fill="none" fill-rule="evenodd">
        <g id="icons" transform="translate(-359.000000, -206.000000)" fill-rule="nonzero" fill="#000000">
            <g id="plus" transform="translate(359.000000, 206.000000)">
                <g id="icon" transform="translate(2.000000, 2.000000)">
                    <g id="Group">
                        <path d="M10,0.001 C4.486,0.001 0,4.487 0,10.001 C0,15.515 4.486,20.001 10,20.001 C15.514,20.001 20,15.515 20,10.001 C20,4.487 15.514,0.001 10,0.001 Z M10,18.001 C5.589,18.001 2,14.412 2,10.001 C2,5.59 5.589,2.001 10,2.001 C14.411,2.001 18,5.59 18,10.001 C18,14.412 14.411,18.001 10,18.001 Z" id="Shape"></path>
                        <polygon id="Shape" points="11 5.001 9 5.001 9 9.001 5 9.001 5 11.001 9 11.001 9 15.001 11 15.001 11 11.001 15 11.001 15 9.001 11 9.001"></polygon>
                    </g>
                </g>
            </g>
        </g>
    </g>
</svg>