<?xml version="1.0" encoding="UTF-8"?>
<svg width="24px" height="24px" viewBox="0 0 24 24" version="1.1" xmlns="http://www.w3.org/2000/svg" xmlns:xlink="http://www.w3.org/1999/xlink">
    <!-- Generator: Sketch 43.2 (39069) - http://www.bohemiancoding.com/sketch -->
    <title>wp</title>
    <desc>Created with Sketch.</desc>
    <defs></defs>
    <g id="Page-1" stroke="none" stroke-width="1" fill="none" fill-rule="evenodd">
        <g id="icons" transform="translate(-24.000000, -206.000000)" stroke="#000000" stroke-width="0.2" fill="#000000">
            <g id="wordpress" transform="translate(24.000000, 206.000000)">
                <path d="M11.9998413,2 C17.5136745,2 21.9997884,6.48579637 21.9997884,11.9996296 C21.9997884,17.5136745 17.5136745,22 11.9998413,22 C6.48590219,22 2,17.5136745 2,11.9996296 C2,6.48579637 6.48590219,2 11.9998413,2 Z M3.90828091,11.9996667 C3.90828091,15.2025069 5.76931868,17.9705875 8.46882821,19.2820091 L4.60894387,8.70663647 C4.15989862,9.71291686 3.90828091,10.82653 3.90828091,11.9996667 Z M11.9998571,20.0919096 C12.9421379,20.0919096 13.8458474,19.9292438 14.6868905,19.6331501 C14.6654621,19.5984836 14.645367,19.5616267 14.6289861,19.5216269 L12.1419516,12.7074724 L9.71386924,19.762197 C10.4390083,19.975434 11.2055756,20.0919096 11.9998571,20.0919096 Z M13.1149941,8.20587722 L16.0392643,16.9040217 L16.8465934,14.2073693 C17.1959249,13.0877561 17.4623044,12.2840461 17.4623044,11.5915736 C17.4623044,10.5911979 17.1028778,9.89891588 16.7951651,9.35996635 C16.385072,8.69320797 16.0003122,8.12902048 16.0003122,7.46216687 C16.0003122,6.71845652 16.5643092,6.02607923 17.3591621,6.02607923 C17.3950667,6.02607923 17.4290665,6.03046016 17.4639235,6.03255538 C16.0244073,4.71351474 14.1063222,3.90809043 11.9998571,3.90809043 C9.17282448,3.90809043 6.6859805,5.35865419 5.23913101,7.55521399 C5.42913,7.5613092 5.60808144,7.56502347 5.75989016,7.56502347 C6.60607616,7.56502347 7.91645018,7.46216687 7.91645018,7.46216687 C8.35244787,7.43664319 8.40387617,8.07740171 7.96816419,8.12902048 C7.96816419,8.12902048 7.52969032,8.18025831 7.04216909,8.20587722 L9.98862969,16.9707832 L11.7596679,11.6600494 L10.4991032,8.20587722 C10.0631055,8.18025831 9.65034577,8.12902048 9.65034577,8.12902048 C9.2141576,8.10321109 9.26530018,7.43664319 9.70167883,7.46216687 C9.70167883,7.46216687 11.0376718,7.56502347 11.8327152,7.56502347 C12.6788059,7.56502347 13.9894657,7.46216687 13.9894657,7.46216687 C14.4256538,7.43664319 14.4770821,8.07740171 14.0410844,8.12902048 C14.0410844,8.12902048 13.6021344,8.18025831 13.1149941,8.20587722 Z M19.1002958,8.11778245 C19.1350575,8.37549537 19.1546764,8.6519701 19.1546764,8.94987328 C19.1546764,9.77063084 19.000963,10.6936736 18.5393464,11.8480484 L16.0679309,18.9937249 C18.4735372,17.5911609 20.0913381,14.984889 20.0913381,11.9996667 C20.0913381,10.592817 19.7319115,9.27025254 19.1002958,8.11778245 Z" id="icon"></path>
            </g>
        </g>
    </g>
</svg>