<?xml version="1.0" encoding="utf-8"?>
<!-- Generator: Adobe Illustrator 16.0.4, SVG Export Plug-In . SVG Version: 6.00 Build 0)  -->
<!DOCTYPE svg PUBLIC "-//W3C//DTD SVG 1.1//EN" "http://www.w3.org/Graphics/SVG/1.1/DTD/svg11.dtd">
<svg version="1.1" id="Layer_1" xmlns="http://www.w3.org/2000/svg" xmlns:xlink="http://www.w3.org/1999/xlink" x="0px" y="0px"
	 width="16px" height="16px" viewBox="0 0 16 16" enable-background="new 0 0 16 16" xml:space="preserve">
<path fill="#000000" d="M8,0C3.582,0,0,3.582,0,8c0,4.418,3.582,8,8,8c4.418,0,8-3.582,8-8C16,3.582,12.418,0,8,0z M12,8.75
	C12,8.888,11.888,9,11.75,9H9v2.75C9,11.888,8.888,12,8.75,12h-1.5C7.112,12,7,11.888,7,11.75V9H4.25C4.112,9,4,8.888,4,8.75v-1.5
	C4,7.112,4.112,7,4.25,7H7V4.25C7,4.112,7.112,4,7.25,4h1.5C8.888,4,9,4.112,9,4.25V7h2.75C11.888,7,12,7.112,12,7.25V8.75z"/>
</svg>
