<?xml version="1.0" encoding="UTF-8"?>
<svg width="24px" height="24px" viewBox="0 0 24 24" version="1.1" xmlns="http://www.w3.org/2000/svg" xmlns:xlink="http://www.w3.org/1999/xlink">
    <!-- Generator: Sketch 43.2 (39069) - http://www.bohemiancoding.com/sketch -->
    <title>facebook</title>
    <desc>Created with Sketch.</desc>
    <defs></defs>
    <g id="Page-1" stroke="none" stroke-width="1" fill="none" fill-rule="evenodd">
        <g id="icons" transform="translate(-120.000000, -206.000000)" fill="#000000">
            <g id="facebook" transform="translate(115.000000, 206.000000)">
                <path d="M25.8961202,2 L8.10380487,2 C7.4941269,2 7,2.4941269 7,3.10380487 L7,20.8961202 C7,21.5057232 7.4941269,22 8.10380487,22 L17.682628,22 L17.682628,14.2549317 L15.0762097,14.2549317 L15.0762097,11.2365162 L17.682628,11.2365162 L17.682628,9.01054722 C17.682628,6.42735907 19.2603271,5.02073849 21.5647539,5.02073849 C22.6686337,5.02073849 23.6173214,5.10286817 23.8937597,5.13958673 L23.8937597,7.83922516 L22.2955282,7.83997452 C21.0423013,7.83997452 20.7995841,8.43548961 20.7995841,9.30939133 L20.7995841,11.2365162 L23.7885498,11.2365162 L23.399408,14.2549317 L20.7995841,14.2549317 L20.7995841,22 L25.8961202,22 C26.5057232,22 26.9999251,21.5057232 26.9999251,20.8961202 L26.9999251,3.10380487 C26.9999251,2.4941269 26.5057232,2 25.8961202,2" id="icon"></path>
            </g>
        </g>
    </g>
</svg>