<?xml version="1.0" encoding="UTF-8"?>
<svg width="24px" height="24px" viewBox="0 0 24 24" version="1.1" xmlns="http://www.w3.org/2000/svg" xmlns:xlink="http://www.w3.org/1999/xlink">
    <!-- Generator: Sketch 43.2 (39069) - http://www.bohemiancoding.com/sketch -->
    <title>twitter</title>
    <desc>Created with Sketch.</desc>
    <defs></defs>
    <g id="Page-1" stroke="none" stroke-width="1" fill="none" fill-rule="evenodd">
        <g id="icons" transform="translate(-168.000000, -206.000000)" fill="#000000">
            <g id="twitter" transform="translate(168.000000, 206.000000)">
                <path d="M7.54789861,21.4001459 C4.76725557,21.4001459 2.17904093,20.589398 0,19.1998188 C0.385207945,19.2450495 0.777175464,19.2681888 1.17458576,19.2681888 C3.48144409,19.2681888 5.60456491,18.485208 7.28971799,17.1716828 C5.13508175,17.1321278 3.3166685,15.7161786 2.69013497,13.7703835 C2.99071656,13.8275768 3.29919895,13.8582255 3.61646,13.8582255 C4.06557665,13.8582255 4.50055964,13.7984126 4.91377154,13.6864709 C2.66116537,13.2366084 0.963985515,11.2571086 0.963985515,8.88415371 C0.963985515,8.86354665 0.963985515,8.84302692 0.964336662,8.8225945 C1.62826731,9.18941755 2.3874465,9.40972095 3.19464501,9.4351305 C1.8734555,8.55688572 1.00410403,7.05780974 1.00410403,5.35868813 C1.00410403,4.46114607 1.24692198,3.61983683 1.67075606,2.89649424 C4.09928673,5.85954437 7.72742236,7.80935604 11.8196862,8.01359292 C11.7357621,7.6551524 11.6921321,7.2813439 11.6921321,6.89749383 C11.6921321,4.19281776 13.8968068,2 16.6161747,2 C18.0323494,2 19.3120158,2.59481044 20.2102491,3.54666432 C21.3318117,3.32697215 22.385603,2.91937157 23.3369472,2.35817857 C22.9692966,3.50178285 22.1886097,4.46158266 21.1719522,5.06774445 C22.1679798,4.9493412 23.1169538,4.68607733 24,4.29655158 C23.3398442,5.27870482 22.5049929,6.14131966 21.5430264,6.83183067 C21.5525074,7.04183054 21.5572479,7.25305286 21.5572479,7.46541031 C21.5572479,13.9373356 16.6046746,21.4001459 7.54789861,21.4001459" id="icon"></path>
            </g>
        </g>
    </g>
</svg>