<svg width="32" height="32" viewBox="0 0 32 32" xmlns="http://www.w3.org/2000/svg"><title>5C415477-2D79-4BFC-8B54-AFEDDD9BFB0F</title><path d="M4 16c0 4.626 2.76 8.624 6.764 10.518L5.039 11.243A11.383 11.383 0 0 0 4 16zm20.101-.59c0-1.445-.533-2.445-.989-3.223-.608-.963-1.179-1.778-1.179-2.741 0-1.074.837-2.074 2.015-2.074.053 0 .104.006.155.009A12.132 12.132 0 0 0 16 4.312c-4.193 0-7.881 2.095-10.027 5.269.282.008.548.014.772.014 1.256 0 3.199-.149 3.199-.149.646-.037.722.889.076.963 0 0-.65.074-1.373.111l4.37 12.66 2.627-7.671-1.87-4.989c-.646-.037-1.258-.111-1.258-.111-.648-.038-.572-1 .075-.963 0 0 1.982.149 3.161.149 1.254 0 3.199-.149 3.199-.149.646-.037.723.889.076.963 0 0-.651.074-1.373.111l4.337 12.563 1.197-3.895c.518-1.617.913-2.778.913-3.778zm-7.89 1.612l-3.601 10.19a12.296 12.296 0 0 0 7.375-.187 1.071 1.071 0 0 1-.087-.161l-3.688-9.842zm10.319-6.629c.051.372.081.771.081 1.202 0 1.185-.228 2.518-.913 4.186l-3.665 10.321C25.602 24.076 28 20.312 28 16a11.39 11.39 0 0 0-1.47-5.607zM16 0C7.163 0 0 7.163 0 16s7.163 16 16 16 16-7.163 16-16S24.837 0 16 0zm0 30C8.268 30 2 23.732 2 16S8.268 2 16 2s14 6.268 14 14-6.268 14-14 14z" fill="#000000" fill-rule="evenodd"/></svg>
